<svg width="33" height="25" viewBox="0 0 33 25" fill="none" xmlns="http://www.w3.org/2000/svg">
<path d="M15.4399 0.385998C16.076 -0.128233 16.9241 -0.128233 17.5601 0.385998C18.8495 1.39493 20.4253 2.08491 22.0012 2.08491C23.5427 2.08491 25.1758 1.38192 26.4365 0.385998C27.1184 -0.167289 28.0467 -0.121724 28.6828 0.496655C29.508 1.27126 30.5452 1.8636 31.5824 2.13699C32.568 2.39736 33.1812 3.51695 32.952 4.63654C32.7227 5.75614 31.7371 6.45263 30.7515 6.19226C29.3475 5.82123 28.1785 5.11823 27.4164 4.56494C25.7546 5.58039 23.8922 6.25084 22.0012 6.25084C20.1732 6.25084 18.5286 5.60642 17.3939 5.02059C17.0616 4.84484 16.7579 4.6756 16.5 4.51938C16.2421 4.6756 15.9442 4.85135 15.6061 5.02059C14.4714 5.60642 12.8268 6.25084 10.9988 6.25084C9.10779 6.25084 7.24541 5.58039 5.5836 4.57145C4.81572 5.11823 3.65245 5.82774 2.24851 6.19877C1.26288 6.45914 0.277251 5.76265 0.0480351 4.64305C-0.181181 3.52346 0.431972 2.40387 1.4176 2.1435C2.44907 1.8636 3.492 1.27126 4.31145 0.496655C4.94752 -0.121724 5.87585 -0.16078 6.55777 0.385998C7.82991 1.38192 9.45735 2.08491 10.9988 2.08491C12.5747 2.08491 14.1505 1.39493 15.4399 0.385998ZM17.5601 19.1327C18.8495 20.1416 20.4253 20.8316 22.0012 20.8316C23.5427 20.8316 25.1758 20.1286 26.4365 19.1327C27.1184 18.5794 28.0467 18.6249 28.6828 19.2433C29.508 20.0179 30.5452 20.6103 31.5824 20.8837C32.568 21.144 33.1812 22.2636 32.952 23.3832C32.7227 24.5028 31.7371 25.1993 30.7515 24.9389C29.3475 24.5679 28.1785 23.8649 27.4164 23.3116C25.7546 24.3271 23.8922 24.9975 22.0012 24.9975C20.1732 24.9975 18.5286 24.3531 17.3939 23.7673C17.0616 23.5915 16.7579 23.4223 16.5 23.266C16.2421 23.4223 15.9442 23.598 15.6061 23.7673C14.4714 24.3531 12.8268 24.9975 10.9988 24.9975C9.10779 24.9975 7.24541 24.3271 5.5836 23.3181C4.81572 23.8649 3.65245 24.5744 2.24851 24.9454C1.26288 25.2058 0.277251 24.5093 0.0480351 23.3897C-0.181181 22.2701 0.431972 21.1505 1.4176 20.8902C2.4548 20.6168 3.492 20.0244 4.31718 19.2498C4.95325 18.638 5.88158 18.5924 6.5635 19.1392C7.82991 20.1286 9.45735 20.8316 10.9988 20.8316C12.5747 20.8316 14.1505 20.1416 15.4399 19.1327C16.076 18.6184 16.9241 18.6184 17.5601 19.1327ZM17.5601 9.75933C18.8495 10.7683 20.4253 11.4582 22.0012 11.4582C23.5427 11.4582 25.1758 10.7552 26.4365 9.75933C27.1184 9.20605 28.0467 9.25161 28.6828 9.86999C29.508 10.6446 30.5452 11.2369 31.5824 11.5103C32.568 11.7707 33.1812 12.8903 32.952 14.0099C32.7227 15.1295 31.7371 15.826 30.7515 15.5656C29.3475 15.1946 28.1785 14.4916 27.4164 13.9383C25.7546 14.9537 23.8922 15.6242 22.0012 15.6242C20.1732 15.6242 18.5286 14.9798 17.3939 14.3939C17.0616 14.2182 16.7579 14.0489 16.5 13.8927C16.2421 14.0489 15.9442 14.2247 15.6061 14.3939C14.4714 14.9798 12.8268 15.6242 10.9988 15.6242C9.10779 15.6242 7.24541 14.9537 5.5836 13.9448C4.81572 14.4916 3.65245 15.2011 2.24851 15.5721C1.26288 15.8325 0.277251 15.136 0.0480351 14.0164C-0.181181 12.8968 0.431972 11.7772 1.4176 11.5168C2.4548 11.2434 3.492 10.6511 4.31718 9.8765C4.95325 9.25812 5.88158 9.21906 6.5635 9.76584C7.82991 10.7552 9.45735 11.4582 10.9988 11.4582C12.5747 11.4582 14.1505 10.7683 15.4399 9.75933C16.076 9.2451 16.9241 9.2451 17.5601 9.75933Z" fill="black"/>
</svg>
