<svg width="15" height="25" viewBox="0 0 15 25" fill="none" xmlns="http://www.w3.org/2000/svg">
<path fill-rule="evenodd" clip-rule="evenodd" d="M7.60399 4.35617e-05C8.00084 0.00307367 8.37987 0.164031 8.65615 0.446844L14.5821 6.51302C15.1517 7.09609 15.1372 8.0271 14.5498 8.5925C13.9625 9.1579 13.0245 9.14358 12.455 8.56051L9.07407 5.0996V7.30848L14.5821 12.9468C15.1517 13.5299 15.1372 14.4609 14.5498 15.0263C13.9625 15.5917 13.0245 15.5774 12.455 14.9943L9.07407 11.5334V13.9261L14.5821 19.5645C15.1517 20.1476 15.1372 21.0786 14.5498 21.644C13.9625 22.2094 13.0245 22.195 12.455 21.612L9.07407 18.1511V23.5294C9.07407 24.3416 8.41079 25 7.59259 25C6.77439 25 6.11111 24.3416 6.11111 23.5294V18.0724L2.52905 21.6281C1.95049 22.2024 1.01247 22.2024 0.433916 21.6281C-0.144639 21.0538 -0.144639 20.1227 0.433916 19.5484L6.11111 13.9129V11.4547L2.52905 15.0105C1.95049 15.5848 1.01247 15.5848 0.433916 15.0105C-0.144639 14.4362 -0.144639 13.505 0.433916 12.9307L6.11111 7.29527V5.0209L2.52905 8.57663C1.95049 9.15093 1.01247 9.15093 0.433916 8.57663C-0.144639 8.00233 -0.144639 7.0712 0.433916 6.4969L6.54503 0.430725C6.82565 0.152164 7.20714 -0.00298646 7.60399 4.35617e-05Z" fill="black"/>
</svg>
