<svg width="36" height="25" viewBox="0 0 36 25" fill="none" xmlns="http://www.w3.org/2000/svg">
<path d="M35.7263 22.2658L26.7245 7.96962C26.5631 7.71102 26.3378 7.49762 26.07 7.34963C25.8022 7.20164 25.5007 7.12397 25.1942 7.12397C24.8877 7.12397 24.5863 7.20164 24.3185 7.34963C24.0507 7.49762 23.8254 7.71102 23.6639 7.96962L21.8636 10.8825L15.9404 0.875118C15.781 0.608453 15.5544 0.387549 15.2829 0.234115C15.0115 0.0806818 14.7044 0 14.3921 0C14.0797 0 13.7727 0.0806818 13.5012 0.234115C13.2297 0.387549 13.0032 0.608453 12.8438 0.875118L0.241222 22.3195C0.0836589 22.5903 0.000480869 22.8975 2.07876e-06 23.2103C-0.000476711 23.5231 0.0817602 23.8305 0.238493 24.1018C0.395226 24.3732 0.620965 24.5989 0.893148 24.7566C1.16533 24.9142 1.47442 24.9981 1.78953 25H34.196C34.5177 25.0006 34.8337 24.9157 35.1111 24.7541C35.3885 24.5924 35.6172 24.3599 35.7734 24.0808C35.9297 23.8017 36.0077 23.4861 35.9994 23.167C35.9911 22.8478 35.8968 22.5366 35.7263 22.2658ZM15.2022 21.4259H4.92216L14.3921 5.34269L19.6671 14.2778L15.2022 21.4259ZM19.4331 21.4259L23.3939 15.2964L25.1942 12.2942L30.9554 21.4259H19.4331Z" fill="black"/>
</svg>
